
<svg xmlns="http://www.w3.org/2000/svg" version="1.1" xmlns:xlink="http://www.w3.org/1999/xlink" preserveAspectRatio="none" x="0px" y="0px" width="103px" height="33px" viewBox="0 0 145 45">
<defs/>

<g id="Layer_1">
<g transform="matrix( 0.645660400390625, 0, 0, 0.6447601318359375, 72.5,22.5) ">
<g id="Layer_1">
<g transform="matrix( 1, 0, 0, 1, -110.45,-34.5) ">
<g>
<g>
<path fill="#255CA0" stroke="none" d="
M 127.2 41.15
Q 126.55 40.35 126.55 39.35 126.55 38.35 127.15 37.55
L 143.75 15.7
Q 144.9 14.25 144.05 12.6 143.25 10.95 141.4 10.95
L 131.65 10.95
Q 130.15 10.95 129.25 12.15
L 113.75 33.3 113.75 13.9
Q 113.75 12.65 112.85 11.8 112 10.95 110.75 10.95
L 101.8 10.95
Q 100.55 10.95 99.7 11.8 98.85 12.65 98.85 13.9
L 98.85 66.05
Q 98.85 67.25 99.7 68.15 100.55 69 101.8 69
L 110.75 69
Q 112 69 112.85 68.15 113.75 67.25 113.75 66.05
L 113.75 46.6 129.4 67.8
Q 130.35 69 131.8 69
L 142.85 69
Q 144.7 69 145.5 67.35 146.35 65.65 145.2 64.2
L 127.2 41.15 Z"/>
</g>
</g>
</g>

<g transform="matrix( 1, 0, 0, 1, -110.45,-34.5) ">
<g>
<g>
<path fill="#57BEDA" stroke="none" d="
M 170.85 14.2
Q 170.85 12.85 169.9 11.9 168.95 10.95 167.6 10.95
L 152.85 10.95
Q 151.55 10.95 150.6 11.9 149.65 12.85 149.65 14.2
L 149.65 19.55
Q 149.65 20.9 150.6 21.85 151.55 22.8 152.85 22.8
L 154.15 22.8
Q 155.5 22.8 156.45 23.75 157.4 24.7 157.4 26.05
L 157.4 65.75
Q 157.4 67.1 158.35 68.05 159.3 69 160.65 69
L 167.6 69
Q 168.95 69 169.9 68.05 170.85 67.1 170.85 65.75
L 170.85 14.2 Z"/>
</g>
</g>
</g>

<g transform="matrix( 1, 0, 0, 1, -110.45,-34.5) ">
<g>
<g>
<path fill="#57BEDA" stroke="none" d="
M 209 48.2
Q 213.75 44.65 216.15 42 219.7 38.05 220.55 33.8 221.5 29.05 220.25 24.15 218.95 19.05 215.7 15.7 210.6 10.45 201.95 10.45 192.35 10.45 187.5 16.35 184.95 19.45 183.75 23.2 183.55 23.75 182.9 27.05 182.25 30.4 182.4 30.4
L 192.7 30.4
Q 193.35 30.4 193.85 29.95 194.4 29.55 194.45 28.9 194.95 25.75 196.5 24.2 198.35 22.3 202 22.3 205.5 22.3 207.35 24.55 209.15 26.7 209.05 30.4 208.95 33.5 202.85 38.2 194.9 43.75 191.1 46.7
L 183.15 52.45
Q 182.4 53.05 182.4 53.95
L 182.4 67.2
Q 182.4 67.95 182.95 68.5 183.5 69 184.25 69
L 219.05 69
Q 219.8 69 220.35 68.5 220.85 67.95 220.85 67.2
L 220.85 59.85
Q 220.85 59.1 220.35 58.6 219.8 58.05 219.05 58.05
L 200.45 58.05
Q 199.15 58.05 198.75 56.8 198.35 55.5 199.45 54.75
L 209 48.2 Z"/>
</g>
</g>
</g>

<g transform="matrix( 1, 0, 0, 1, -110.45,-34.5) ">
<g>
<g>
<path fill="#255CA0" stroke="none" d="
M 74.25 0.65
Q 73 -0.3 71.5 0.15
L 31.35 10.35
Q 30.35 10.6 29.7 11.45 29.05 12.3 29.05 13.35
L 29.05 64.95
Q 29.05 66.5 30.3 67.45 31.5 68.35 33 67.95
L 73.2 57.7
Q 74.2 57.45 74.85 56.6 75.45 55.75 75.45 54.7
L 75.45 3.1
Q 75.45 1.55 74.25 0.65 Z"/>
</g>
</g>
</g>

<g transform="matrix( 1, 0, 0, 1, -110.45,-34.5) ">
<g>
<g>
<path fill="#57BEDA" stroke="none" d="
M 81.35 65.9
L 81.35 14.05
Q 81.35 12.8 80.45 11.85 79.55 10.95 78.25 10.95
L 32.15 10.95
Q 30.9 10.95 29.95 11.85 29.05 12.8 29.05 14.05
L 29.05 65.9
Q 29.05 67.2 29.95 68.1 30.9 69 32.15 69
L 78.25 69
Q 79.55 69 80.45 68.1 81.35 67.2 81.35 65.9 Z"/>
</g>
</g>
</g>

<g transform="matrix( 1, 0, 0, 1, -110.45,-34.5) ">
<g>
<g>
<path fill="#ECC749" stroke="none" d="
M 21.8 18.2
L 21.8 10.95 14.55 10.95 14.55 18.2 21.8 18.2 Z"/>
</g>
</g>
</g>

<g transform="matrix( 1, 0, 0, 1, -110.45,-34.5) ">
<g>
<g>
<path fill="#FFFFFF" stroke="none" d="
M 50.8 25.45
L 50.8 18.2 43.55 18.2 43.55 25.45 50.8 25.45 Z"/>
</g>
</g>
</g>

<g transform="matrix( 1, 0, 0, 1, -110.45,-34.5) ">
<g>
<g>
<path fill="#ECC749" stroke="none" d="
M 7.25 32.7
L 7.25 25.45 0 25.45 0 32.7 7.25 32.7 Z"/>
</g>
</g>
</g>

<g transform="matrix( 1, 0, 0, 1, -110.45,-34.5) ">
<g>
<g>
<path fill="#4BA7B3" stroke="none" d="
M 21.8 32.7
L 21.8 25.45 14.55 25.45 14.55 32.7 21.8 32.7 Z"/>
</g>
</g>
</g>

<g transform="matrix( 1, 0, 0, 1, -110.45,-34.5) ">
<g>
<g>
<path fill="#255CA0" stroke="none" d="
M 36.3 32.7
L 36.3 25.45 29.05 25.45 29.05 32.7 36.3 32.7 Z"/>
</g>
</g>
</g>

<g transform="matrix( 1, 0, 0, 1, -110.45,-34.5) ">
<g>
<g>
<path fill="#ECC749" stroke="none" d="
M 29.05 40
L 29.05 32.7 21.8 32.7 21.8 40 29.05 40 Z"/>
</g>
</g>
</g>

<g transform="matrix( 1, 0, 0, 1, -110.45,-34.5) ">
<g>
<g>
<path fill="#255CA0" stroke="none" d="
M 50.8 40
L 50.8 32.7 43.55 32.7 43.55 40 50.8 40 Z"/>
</g>
</g>
</g>

<g transform="matrix( 1, 0, 0, 1, -110.45,-34.5) ">
<g>
<g>
<path fill="#4BA7B3" stroke="none" d="
M 21.8 47.25
L 21.8 40 14.55 40 14.55 47.25 21.8 47.25 Z"/>
</g>
</g>
</g>

<g transform="matrix( 1, 0, 0, 1, -110.45,-34.5) ">
<g>
<g>
<path fill="#255CA0" stroke="none" d="
M 36.3 47.25
L 36.3 40 29.05 40 29.05 47.25 36.3 47.25 Z"/>
</g>
</g>
</g>

<g transform="matrix( 1, 0, 0, 1, -110.45,-34.5) ">
<g>
<g>
<path fill="#FFFFFF" stroke="none" d="
M 43.55 47.25
L 43.55 40 36.3 40 36.3 47.25 43.55 47.25 Z"/>
</g>
</g>
</g>

<g transform="matrix( 1, 0, 0, 1, -110.45,-34.5) ">
<g>
<g>
<path fill="#FFFFFF" stroke="none" d="
M 72.6 47.25
L 72.6 40 65.35 40 65.35 47.25 72.6 47.25 Z"/>
</g>
</g>
</g>

<g transform="matrix( 1, 0, 0, 1, -110.45,-34.5) ">
<g>
<g>
<path fill="#ECC749" stroke="none" d="
M 14.55 47.25
L 7.25 47.25 7.25 54.5 14.55 54.5 14.55 47.25 Z"/>
</g>
</g>
</g>

<g transform="matrix( 1, 0, 0, 1, -110.45,-34.5) ">
<g>
<g>
<path fill="#57BEDA" stroke="none" d="
M 43.55 54.5
L 43.55 47.25 36.3 47.25 36.3 54.5 43.55 54.5 Z"/>
</g>
</g>
</g>

<g transform="matrix( 1, 0, 0, 1, -110.45,-34.5) ">
<g>
<g>
<path fill="#255CA0" stroke="none" d="
M 43.55 54.5
L 43.55 47.25 36.3 47.25 36.3 54.5 43.55 54.5 Z"/>
</g>
</g>
</g>

<g transform="matrix( 1, 0, 0, 1, -110.45,-34.5) ">
<g>
<g>
<path fill="#FFFFFF" stroke="none" d="
M 58.05 47.25
L 50.8 47.25 50.8 54.5 58.05 54.5 58.05 47.25 Z"/>
</g>
</g>
</g>

<g transform="matrix( 1, 0, 0, 1, -110.45,-34.5) ">
<g>
<g>
<path fill="#4BA7B3" stroke="none" d="
M 29.05 61.75
L 29.05 54.5 21.8 54.5 21.8 61.75 29.05 61.75 Z"/>
</g>
</g>
</g>

<g transform="matrix( 1, 0, 0, 1, -110.45,-34.5) ">
<g>
<g>
<path fill="#FFFFFF" stroke="none" d="
M 36.3 61.75
L 36.3 54.5 29.05 54.5 29.05 61.75 36.3 61.75 Z"/>
</g>
</g>
</g>
</g>
</g>
</g>
</svg>
