<?xml version="1.0" standalone="no"?>
<!DOCTYPE svg PUBLIC "-//W3C//DTD SVG 20010904//EN"
 "http://www.w3.org/TR/2001/REC-SVG-20010904/DTD/svg10.dtd">
<svg version="1.0" xmlns="http://www.w3.org/2000/svg"
 width="1280.000000pt" height="410.000000pt" viewBox="0 0 1280.000000 410.000000"
 preserveAspectRatio="xMidYMid meet">

<g transform="translate(0.000000,410.000000) scale(0.100000,-0.100000)"
fill="#000000" stroke="none">
<path d="M2265 3906 c-319 -85 -814 -215 -1100 -290 -286 -74 -551 -144 -588
-155 -91 -25 -133 -66 -151 -146 l-6 -30 16 30 c9 17 26 41 38 53 49 55 -24
52 1331 52 l1255 0 0 256 c0 290 -3 304 -73 355 -32 23 -50 29 -91 28 -32 0
-270 -58 -631 -153z"/>
<path d="M3995 2820 c-184 -28 -317 -114 -384 -251 -84 -171 -58 -382 65 -518
57 -63 150 -121 327 -202 195 -89 257 -147 257 -243 0 -124 -84 -195 -241
-204 -116 -6 -213 16 -339 79 -54 27 -103 49 -109 49 -37 0 -51 -196 -18 -257
21 -39 108 -84 222 -114 106 -29 318 -31 415 -6 262 69 410 249 410 497 0 105
-17 167 -69 248 -63 97 -163 163 -415 272 -170 75 -242 163 -215 264 16 60 38
87 94 112 37 18 67 24 120 24 88 0 154 -18 266 -71 85 -40 91 -42 107 -25 14
14 17 36 17 122 l0 106 -31 28 c-81 72 -311 115 -479 90z"/>
<path d="M5915 2820 c-184 -28 -317 -114 -384 -251 -84 -171 -58 -382 65 -518
57 -63 150 -121 327 -202 195 -89 257 -147 257 -243 0 -124 -84 -195 -241
-204 -116 -6 -213 16 -339 79 -54 27 -103 49 -109 49 -37 0 -51 -196 -18 -257
21 -39 108 -84 222 -114 106 -29 318 -31 415 -6 262 69 410 249 410 497 0 105
-17 167 -69 248 -63 97 -163 163 -415 272 -170 75 -242 163 -215 264 16 60 38
87 94 112 37 18 67 24 120 24 88 0 154 -18 266 -71 85 -40 91 -42 107 -25 14
14 17 36 17 122 l0 106 -31 28 c-81 72 -311 115 -479 90z"/>
<path d="M12158 2823 c7 -3 16 -2 19 1 4 3 -2 6 -13 5 -11 0 -14 -3 -6 -6z"/>
<path d="M12268 2823 c7 -3 16 -2 19 1 4 3 -2 6 -13 5 -11 0 -14 -3 -6 -6z"/>
<path d="M4928 2801 c-74 -15 -68 54 -68 -822 l0 -789 27 -17 c22 -15 49 -18
143 -18 73 0 123 5 138 13 l22 13 0 800 0 799 -27 11 c-35 14 -186 20 -235 10z"/>
<path d="M8348 2803 c6 -2 18 -2 25 0 6 3 1 5 -13 5 -14 0 -19 -2 -12 -5z"/>
<path d="M8518 2803 c7 -3 16 -2 19 1 4 3 -2 6 -13 5 -11 0 -14 -3 -6 -6z"/>
<path d="M9518 2803 c7 -3 16 -2 19 1 4 3 -2 6 -13 5 -11 0 -14 -3 -6 -6z"/>
<path d="M9668 2803 c7 -3 16 -2 19 1 4 3 -2 6 -13 5 -11 0 -14 -3 -6 -6z"/>
<path d="M10438 2803 c6 -2 18 -2 25 0 6 3 1 5 -13 5 -14 0 -19 -2 -12 -5z"/>
<path d="M10658 2803 c6 -2 18 -2 25 0 6 3 1 5 -13 5 -14 0 -19 -2 -12 -5z"/>
<path d="M6829 2785 c-15 -8 -32 -29 -38 -46 -15 -45 -15 -1473 0 -1518 20
-57 41 -61 309 -61 132 0 284 5 338 11 226 24 368 85 493 208 147 146 209 332
209 621 -1 202 -29 327 -108 467 -43 78 -156 183 -248 230 -160 83 -288 103
-674 102 -202 0 -260 -3 -281 -14z m602 -255 c75 -14 169 -61 222 -109 25 -23
61 -72 80 -109 48 -92 67 -186 67 -329 -1 -290 -92 -455 -295 -533 -52 -20
-83 -24 -227 -28 l-168 -4 0 561 0 561 134 0 c73 0 157 -5 187 -10z"/>
<path d="M10771 2773 c7 -12 15 -20 18 -17 3 2 -3 12 -13 22 -17 16 -18 16 -5
-5z"/>
<path d="M9742 2755 c0 -16 2 -22 5 -12 2 9 2 23 0 30 -3 6 -5 -1 -5 -18z"/>
<path d="M8611 2765 c1 -19 18 -51 18 -35 0 8 -4 22 -9 30 -5 8 -9 11 -9 5z"/>
<path d="M12625 2700 c10 -11 20 -20 23 -20 3 0 -3 9 -13 20 -10 11 -20 20
-23 20 -3 0 3 -9 13 -20z"/>
<path d="M12663 2550 c0 -47 2 -66 4 -42 2 23 2 61 0 85 -2 23 -4 4 -4 -43z"/>
<path d="M420 2360 l0 -210 205 0 205 0 0 210 0 210 -205 0 -205 0 0 -210z"/>
<path d="M11851 2244 c0 -11 3 -14 6 -6 3 7 2 16 -1 19 -3 4 -6 -2 -5 -13z"/>
<path d="M8791 2194 c0 -11 3 -14 6 -6 3 7 2 16 -1 19 -3 4 -6 -2 -5 -13z"/>
<path d="M11831 2164 c0 -11 3 -14 6 -6 3 7 2 16 -1 19 -3 4 -6 -2 -5 -13z"/>
<path d="M1250 1934 l0 -214 205 0 205 0 0 215 0 216 -205 -1 -205 -1 0 -215z"/>
<path d="M11822 2110 c0 -14 2 -19 5 -12 2 6 2 18 0 25 -3 6 -5 1 -5 -13z"/>
<path d="M11471 2104 c0 -11 3 -14 6 -6 3 7 2 16 -1 19 -3 4 -6 -2 -5 -13z"/>
<path d="M11813 1975 c0 -22 2 -30 4 -17 2 12 2 30 0 40 -3 9 -5 -1 -4 -23z"/>
<path d="M11822 1845 c0 -16 2 -22 5 -12 2 9 2 23 0 30 -3 6 -5 -1 -5 -18z"/>
<path d="M11471 1804 c0 -11 3 -14 6 -6 3 7 2 16 -1 19 -3 4 -6 -2 -5 -13z"/>
<path d="M11831 1774 c0 -11 3 -14 6 -6 3 7 2 16 -1 19 -3 4 -6 -2 -5 -13z"/>
<path d="M420 1505 l0 -215 205 0 205 0 0 -209 0 -209 203 -4 c111 -2 205 -2
210 0 4 2 7 97 7 213 l0 209 -210 0 -210 0 0 215 0 215 -205 0 -205 0 0 -215z"/>
<path d="M11170 1645 c0 -5 5 -17 10 -25 5 -8 10 -10 10 -5 0 6 -5 17 -10 25
-5 8 -10 11 -10 5z"/>
<path d="M12652 1518 c7 -15 15 -23 17 -17 2 6 -4 18 -13 27 -15 15 -15 15 -4
-10z"/>
<path d="M11980 1496 c0 -2 8 -10 18 -17 15 -13 16 -12 3 4 -13 16 -21 21 -21
13z"/>
<path d="M10201 1424 c0 -11 3 -14 6 -6 3 7 2 16 -1 19 -3 4 -6 -2 -5 -13z"/>
<path d="M12661 1314 c0 -11 3 -14 6 -6 3 7 2 16 -1 19 -3 4 -6 -2 -5 -13z"/>
<path d="M8888 1153 c6 -2 18 -2 25 0 6 3 1 5 -13 5 -14 0 -19 -2 -12 -5z"/>
<path d="M9108 1153 c6 -2 18 -2 25 0 6 3 1 5 -13 5 -14 0 -19 -2 -12 -5z"/>
<path d="M9888 1153 c7 -3 16 -2 19 1 4 3 -2 6 -13 5 -11 0 -14 -3 -6 -6z"/>
<path d="M10028 1153 c7 -3 16 -2 19 1 4 3 -2 6 -13 5 -11 0 -14 -3 -6 -6z"/>
<path d="M11058 1153 c6 -2 18 -2 25 0 6 3 1 5 -13 5 -14 0 -19 -2 -12 -5z"/>
<path d="M11238 1153 c7 -3 16 -2 19 1 4 3 -2 6 -13 5 -11 0 -14 -3 -6 -6z"/>
<path d="M12128 1133 c7 -3 16 -2 19 1 4 3 -2 6 -13 5 -11 0 -14 -3 -6 -6z"/>
<path d="M12248 1133 c7 -3 16 -2 19 1 4 3 -2 6 -13 5 -11 0 -14 -3 -6 -6z"/>
</g>
</svg>
