<?xml version="1.0" encoding="UTF-8"?>
<svg width="20px" height="20px" viewBox="0 0 20 20" version="1.1" xmlns="http://www.w3.org/2000/svg" xmlns:xlink="http://www.w3.org/1999/xlink">
    <title>alerts/warning</title>
    <defs>
        <filter color-interpolation-filters="auto" id="filter-1">
            <feColorMatrix in="SourceGraphic" type="matrix" values="0 0 0 0 0.364706 0 0 0 0 0.172549 0 0 0 0 0.015686 0 0 0 1.000000 0"></feColorMatrix>
        </filter>
    </defs>
    <g id="alerts/warning" stroke="none" stroke-width="1" fill="none" fill-rule="evenodd">
        <g filter="url(#filter-1)" id="exclamation-circle-regular">
            <g>
                <path d="M10,0 C4.47754032,0 0,4.47915323 0,10 C0,15.5240726 4.47754032,20 10,20 C15.5224597,20 20,15.5240726 20,10 C20,4.47915323 15.5224597,0 10,0 Z M10,18.0645161 C5.54306452,18.0645161 1.93548387,14.4584274 1.93548387,10 C1.93548387,5.54455645 5.54322581,1.93548387 10,1.93548387 C14.4552823,1.93548387 18.0645161,5.54318548 18.0645161,10 C18.0645161,14.4568548 14.4584274,18.0645161 10,18.0645161 Z M11.6935484,13.8709677 C11.6935484,14.8047984 10.9338306,15.5645161 10,15.5645161 C9.06616935,15.5645161 8.30645161,14.8047984 8.30645161,13.8709677 C8.30645161,12.9371371 9.06616935,12.1774194 10,12.1774194 C10.9338306,12.1774194 11.6935484,12.9371371 11.6935484,13.8709677 Z M8.4125,5.34673387 L8.68669355,10.8306048 C8.69955645,11.0881452 8.9121371,11.2903226 9.16995968,11.2903226 L10.8300403,11.2903226 C11.0878629,11.2903226 11.3004435,11.0881452 11.3133065,10.8306048 L11.5875,5.34673387 C11.6013306,5.0703629 11.3809677,4.83870968 11.1042339,4.83870968 L8.89576613,4.83870968 C8.61903226,4.83870968 8.39866935,5.0703629 8.4125,5.34673387 L8.4125,5.34673387 Z" id="Shape" fill="#000000" fill-rule="nonzero"></path>
            </g>
        </g>
    </g>
</svg>