<?xml version="1.0" encoding="UTF-8"?>
<svg width="23px" height="23px" viewBox="0 0 23 23" version="1.1" xmlns="http://www.w3.org/2000/svg" xmlns:xlink="http://www.w3.org/1999/xlink">
    <title>Shape Copy</title>
    <g id="Live-DB-version" stroke="none" stroke-width="1" fill="none" fill-rule="evenodd">
        <g id="Create-on-Live-DB-_Results-list_Success_Updated" transform="translate(-122.000000, -267.000000)" fill="#27B610">
            <g id="Group" transform="translate(110.000000, 254.000000)">
                <path d="M23.5,13 C29.8525884,13 35,18.1474116 35,24.5 C35,30.8525884 29.8525884,36 23.5,36 C17.1474116,36 12,30.8525884 12,24.5 C12,18.1474116 17.1474116,13 23.5,13 Z M18.3816288,25.6688763 C18.2364268,25.5381944 18.1565657,25.3566919 18.1493056,25.1679293 C18.1420455,24.9864268 18.2001263,24.7976641 18.3308081,24.645202 C18.3308081,24.645202 18.3308081,24.6379419 18.3380682,24.6379419 C18.46875,24.4927399 18.6502525,24.4128788 18.8390152,24.4056187 C19.0205177,24.3983586 19.2165404,24.4564394 19.3617424,24.5943813 L21.7866162,26.7941919 L27.6019571,20.7029672 C27.739899,20.5577652 27.9214015,20.4851641 28.1101641,20.477904 C28.2989268,20.4706439 28.4804293,20.5359848 28.6256313,20.6811869 C28.7708333,20.8191288 28.8434343,21.0006313 28.8506944,21.1893939 C28.8579545,21.3781566 28.7926136,21.5596591 28.6474116,21.7121212 L22.3383838,28.3188131 L22.3238636,28.3333333 C22.1931818,28.4640152 22.0116793,28.5366162 21.8374369,28.5438763 C21.6559343,28.5511364 21.4671717,28.4857955 21.3219697,28.3551136 L18.3743687,25.6833965 L18.3816288,25.6688763 Z" id="Shape-Copy"></path>
            </g>
        </g>
    </g>
</svg>