<?xml version="1.0" encoding="UTF-8"?>
<svg width="15px" height="16px" viewBox="0 0 15 16" version="1.1" xmlns="http://www.w3.org/2000/svg" xmlns:xlink="http://www.w3.org/1999/xlink">
    <title>edit-solid copy</title>
    <g id="Icons" stroke="none" stroke-width="1" fill="none" fill-rule="evenodd">
        <g id="edit-solid-copy" fill="#006FBF">
            <path d="M8.74798156,3.19672523 L12.0001849,6.6665762 C12.1371957,6.81275617 12.1371957,7.05126034 12.0001849,7.19744032 L4.12567035,15.598942 L0.77972276,15.9951667 C0.332634936,16.0490224 -0.0459474952,15.6451041 0.00453016238,15.1680958 L0.3759015,11.5982269 L8.25041608,3.19672523 C8.38742686,3.05054525 8.61097077,3.05054525 8.74798156,3.19672523 Z M14.5889676,2.31579854 L12.8294607,0.438539923 C12.2814176,-0.146179974 11.3908475,-0.146179974 10.8391988,0.438539923 L9.56283517,1.80032179 C9.42582439,1.94650176 9.42582439,2.18500593 9.56283517,2.33118591 L12.8150385,5.80103688 C12.9520493,5.94721685 13.1755932,5.94721685 13.312604,5.80103688 L14.5889676,4.43925501 C15.1370108,3.85068827 15.1370108,2.90051844 14.5889676,2.31579854 Z" id="Shape"></path>
        </g>
    </g>
</svg>