<?xml version="1.0" encoding="UTF-8"?>
<svg width="16px" height="15px" viewBox="0 0 16 15" version="1.1" xmlns="http://www.w3.org/2000/svg" xmlns:xlink="http://www.w3.org/1999/xlink">
    <!-- Generator: Sketch 64 (93537) - https://sketch.com -->
    <title>Shape</title>
    <desc>Created with Sketch.</desc>
    <g id="KCS-1" stroke="none" stroke-width="1" fill="none" fill-rule="evenodd">
        <g id="15_new_KCS_modal_error" transform="translate(-623.000000, -244.000000)" fill="#A90F14" fill-rule="nonzero">
            <path d="M638.81992,256.277149 C639.332642,257.169838 638.689059,258.285714 637.665004,258.285714 L624.334841,258.285714 C623.308813,258.285714 622.668203,257.168108 623.179925,256.277149 L629.845089,244.669224 C630.358061,243.776116 631.642867,243.777735 632.154922,244.669224 L638.81992,256.277149 Z M631.000006,253.877232 C630.294311,253.877232 629.722228,254.45187 629.722228,255.160714 C629.722228,255.869559 630.294311,256.444197 631.000006,256.444197 C631.7057,256.444197 632.277783,255.869559 632.277783,255.160714 C632.277783,254.45187 631.7057,253.877232 631.000006,253.877232 Z M629.786867,249.263784 L629.992923,253.058426 C630.002562,253.235993 630.148728,253.375 630.325756,253.375 L631.674255,253.375 C631.851283,253.375 631.99745,253.235993 632.007089,253.058426 L632.213144,249.263784 C632.223561,249.071987 632.071533,248.910714 631.880311,248.910714 L630.119673,248.910714 C629.92845,248.910714 629.77645,249.071987 629.786867,249.263784 L629.786867,249.263784 Z" id="Shape"></path>
        </g>
    </g>
</svg>