<?xml version="1.0" encoding="UTF-8"?>
<svg width="16px" height="15px" viewBox="0 0 16 15" version="1.1" xmlns="http://www.w3.org/2000/svg" xmlns:xlink="http://www.w3.org/1999/xlink">
    <!-- Generator: Sketch 64 (93537) - https://sketch.com -->
    <title>exclamation-triangle-solid</title>
    <desc>Created with Sketch.</desc>
    <g id="KCS-1" stroke="none" stroke-width="1" fill="none" fill-rule="evenodd">
        <g id="15_new_KCS_modal_error" transform="translate(-623.000000, -244.000000)" fill="#000000">
            <g id="exclamation-triangle-solid" transform="translate(623.000000, 244.000000)">
                <g transform="translate(0.000000, 0.000000)" id="Shape">
                    <path d="M15.8199201,12.2771486 C16.3326422,13.1698383 15.6890591,14.2857144 14.6650038,14.2857144 L1.33484092,14.2857144 C0.308813431,14.2857144 -0.331797498,13.1681084 0.179924579,12.2771486 L6.84508935,0.669224468 C7.35806143,-0.223883791 8.64286662,-0.222265487 9.15492203,0.669224468 L15.8199201,12.2771486 Z M8.00000569,9.87723228 C7.29431145,9.87723228 6.72222828,10.4518696 6.72222828,11.1607144 C6.72222828,11.8695593 7.29431145,12.4441966 8.00000569,12.4441966 C8.70569994,12.4441966 9.27778311,11.8695593 9.27778311,11.1607144 C9.27778311,10.4518696 8.70569994,9.87723228 8.00000569,9.87723228 Z M6.78686715,5.26378362 L6.99292264,9.05842648 C7.00256153,9.23599344 7.14872816,9.37500014 7.32575588,9.37500014 L8.6742555,9.37500014 C8.85128323,9.37500014 8.99744985,9.23599344 9.00708874,9.05842648 L9.21314424,5.26378362 C9.2235609,5.07198674 9.07153316,4.91071442 8.880311,4.91071442 L7.11967261,4.91071442 C6.92845044,4.91071442 6.77645048,5.07198674 6.78686715,5.26378362 L6.78686715,5.26378362 Z" fill-rule="nonzero"></path>
                </g>
            </g>
        </g>
    </g>
</svg>