<?xml version="1.0" encoding="UTF-8"?>
<svg width="21px" height="24px" viewBox="0 0 21 24" version="1.1" xmlns="http://www.w3.org/2000/svg" xmlns:xlink="http://www.w3.org/1999/xlink">
    <title>font-awesome-flag-brands</title>
    <g id="Live-DB-version" stroke="none" stroke-width="1" fill="none" fill-rule="evenodd">
        <g id="Create-on-Live-DB_-Subject-multi-select-2-option_warning" transform="translate(-115.000000, -215.000000)" fill="#064F9D" fill-rule="nonzero">
            <g id="Group-27" transform="translate(93.000000, 202.000000)">
                <g id="font-awesome-flag-brands" transform="translate(22.000000, 13.000000)">
                    <path d="M21,16.848 C21,17.184 20.7076566,17.328 20.3665893,17.472 C19.0023202,18.048 17.5406032,18.576 15.9814385,18.576 C13.7888631,18.576 12.7656613,17.232 10.1345708,17.232 C8.23433875,17.232 6.23665893,17.904 4.6287703,18.624 C4.53132251,18.672 4.43387471,18.672 4.33642691,18.72 L4.33642691,22.368 C4.33642691,23.3713594 3.56931101,24 2.72853828,24 C1.80278422,24 1.07192575,23.28 1.07192575,22.368 L1.07192575,4.8 C0.438515081,4.32 0,3.552 0,2.688 C0,1.2 1.21809745,0 2.72853828,0 C4.23897912,0 5.45707657,1.2 5.45707657,2.688 C5.45707657,3.552 5.06728538,4.32 4.38515081,4.8 L4.38515081,6.288 C4.5813787,6.22359375 7.18144577,4.944 9.84222738,4.944 C12.9479001,4.944 14.4898401,6.24 15.8839907,6.24 C17.7354988,6.24 19.7819026,4.944 20.2691415,4.944 C20.6589327,4.944 21,5.232 21,5.568 L21,16.848 Z" id="Path"></path>
                </g>
            </g>
        </g>
    </g>
</svg>