<?xml version="1.0" encoding="UTF-8"?>
<svg width="17px" height="17px" viewBox="0 0 17 17" version="1.1" xmlns="http://www.w3.org/2000/svg" xmlns:xlink="http://www.w3.org/1999/xlink" fill="#006FBF">
    <title>forms/search</title>
    <defs>
        <filter id="filter-1">
            <feColorMatrix in="SourceGraphic" type="matrix" values="0 0 0 0 0.215686 0 0 0 0 0.219608 0 0 0 0 0.231373 0 0 0 1.000000 0"></feColorMatrix>
        </filter>
    </defs>
    <g id="forms/search" stroke="none" stroke-width="1" fill="none" fill-rule="evenodd">
        <g id="search" filter="url(#filter-1)">
            <g>
                <path d="M7.19243117,2.61523644 C4.66910904,2.61523644 2.61577973,4.6686433 2.61577973,7.19270283 C2.61577973,9.71547817 4.66910904,11.768885 7.19243117,11.768885 C9.7157533,11.768885 11.7690826,9.71547817 11.7690826,7.19270283 C11.7690826,4.6686433 9.7157533,2.61523644 7.19243117,2.61523644 M15.6921101,17 C15.344752,17 15.007667,16.8568137 14.7726706,16.611535 L11.2689126,13.1179181 C10.0733844,13.9455733 8.64285984,14.3847636 7.19243117,14.3847636 C3.21868036,14.3847636 0,11.1666037 0,7.19270283 C0,3.21815984 3.21868036,3.55271368e-15 7.19243117,3.55271368e-15 C11.166182,3.55271368e-15 14.3848623,3.21815984 14.3848623,7.19270283 C14.3848623,8.64318628 13.9450466,10.0731228 13.1180647,11.2686962 L16.6218227,14.7725865 C16.8568191,15.0075918 17,15.3446895 17,15.6920607 C17,16.4176235 16.4176455,17 15.6921101,17" id="Fill-1" fill="#006FBF" transform="translate(8.500000, 8.500000) scale(-1, 1) translate(-8.500000, -8.500000) "></path>
            </g>
        </g>
    </g>
</svg>