<?xml version="1.0" encoding="UTF-8"?>
<svg width="14px" height="16px" viewBox="0 0 14 16" version="1.1" xmlns="http://www.w3.org/2000/svg" xmlns:xlink="http://www.w3.org/1999/xlink">
    <title>edit-add-remove/trash</title>
    <g id="edit-add-remove/trash" stroke="none" stroke-width="1" fill="none" fill-rule="evenodd">
        <g id="trash" fill="#006FBF" fill-rule="nonzero">
            <g>
                <path d="M1,5.332 C1,4.84222222 1.456,4.444 2.002,4.444 L11.998,4.444 C12.551,4.444 13,4.84222222 13,5.332 L13,14.22 C13,15.2031111 12.098,15.9995556 10.991,15.9995556 L3.009,15.9995556 C1.899,15.9995556 1,15.2057778 1,14.22 L1,5.332 Z" id="Fill-1"></path>
                <path d="M10,1.77777778 L12.993,1.77777778 C13.55,1.77777778 14,2.176 14,2.66666667 C14,3.16088889 13.549,3.55555556 12.993,3.55555556 L1.007,3.55555556 C0.45,3.55555556 0,3.15733333 0,2.66666667 C0,2.17244444 0.451,1.77777778 1.007,1.77777778 L4,1.77777778 L4,0.888 C4,0.393777778 4.444,0 4.991,0 L9.009,0 C9.549,0 10,0.397333333 10,0.888 L10,1.77777778 Z" id="Fill-3"></path>
            </g>
        </g>
    </g>
</svg>