<?xml version="1.0" encoding="UTF-8"?>
<svg width="16px" height="16px" viewBox="0 0 16 16" version="1.1" xmlns="http://www.w3.org/2000/svg" xmlns:xlink="http://www.w3.org/1999/xlink" fill="#006FBF">
    <title>misc/search-blue</title>
    <defs>
        <filter id="filter-1" fill="#006FBF">
            <feColorMatrix in="SourceGraphic" type="matrix" values="0 0 0 0 0.000000 0 0 0 0 0.435294 0 0 0 0 0.749020 0 0 0 1.000000 0"></feColorMatrix>
        </filter>
    </defs>
    <g id="misc/search-blue" stroke="none" stroke-width="1" fill="#006FBF" fill-rule="evenodd">
        <g filter="url(#filter-1)" id="search-solid" fill="#006FBF">
            <g>
                <path d="M15.7824044,13.8330241 L12.6665515,10.7177033 C12.5259162,10.5770921 12.3352773,10.4989747 12.1352626,10.4989747 L11.6258504,10.4989747 C12.4884135,9.39595743 13.0009509,8.00859291 13.0009509,6.4993653 C13.0009509,2.90909091 10.0913631,0 6.50047547,0 C2.90958782,0 0,2.90909091 0,6.4993653 C0,10.0896397 2.90958782,12.9987306 6.50047547,12.9987306 C8.00996088,12.9987306 9.39756238,12.4862806 10.5007681,11.6238649 L10.5007681,12.1331901 C10.5007681,12.3331706 10.5788988,12.523777 10.7195341,12.6643882 L13.835387,15.779709 C14.1291585,16.0734303 14.6041932,16.0734303 14.8948395,15.779709 L15.7792792,14.8954204 C16.0730507,14.6016991 16.0730507,14.1267454 15.7824044,13.8330241 Z M6.50047547,10.4989747 C4.29093886,10.4989747 2.50018287,8.71164925 2.50018287,6.4993653 C2.50018287,4.29020603 4.28781363,2.49975588 6.50047547,2.49975588 C8.71001209,2.49975588 10.5007681,4.28708134 10.5007681,6.4993653 C10.5007681,8.70852456 8.71313732,10.4989747 6.50047547,10.4989747 Z" id="Shape" fill="#006FBF" fill-rule="nonzero"></path>
            </g>
        </g>
    </g>
</svg>