<?xml version="1.0" encoding="UTF-8"?>
<svg width="23px" height="23px" viewBox="0 0 23 23" version="1.1" xmlns="http://www.w3.org/2000/svg" xmlns:xlink="http://www.w3.org/1999/xlink">
    <!-- Generator: Sketch 64 (93537) - https://sketch.com -->
    <title>Shape</title>
    <desc>Created with Sketch.</desc>
    <g id="State-Standards-1" stroke="none" stroke-width="1" fill="none" fill-rule="evenodd">
        <g id="08_success_msg" transform="translate(-116.000000, -176.000000)" fill="#27B610">
            <path d="M127.5,176 C133.852588,176 139,181.147412 139,187.5 C139,193.852588 133.852588,199 127.5,199 C121.147412,199 116,193.852588 116,187.5 C116,181.147412 121.147412,176 127.5,176 Z M122.381629,188.668876 C122.236427,188.538194 122.156566,188.356692 122.149306,188.167929 C122.142045,187.986427 122.200126,187.797664 122.330808,187.645202 C122.330808,187.645202 122.330808,187.637942 122.338068,187.637942 C122.46875,187.49274 122.650253,187.412879 122.839015,187.405619 C123.020518,187.398359 123.21654,187.456439 123.361742,187.594381 L125.786616,189.794192 L131.601957,183.702967 C131.739899,183.557765 131.921402,183.485164 132.110164,183.477904 C132.298927,183.470644 132.480429,183.535985 132.625631,183.681187 C132.770833,183.819129 132.843434,184.000631 132.850694,184.189394 C132.857955,184.378157 132.792614,184.559659 132.647412,184.712121 L126.338384,191.318813 L126.323864,191.333333 C126.193182,191.464015 126.011679,191.536616 125.837437,191.543876 C125.655934,191.551136 125.467172,191.485795 125.32197,191.355114 L122.374369,188.683396 L122.381629,188.668876 Z" id="Shape"></path>
        </g>
    </g>
</svg>