<?xml version="1.0" encoding="UTF-8"?>
<svg width="16px" height="16px" viewBox="0 0 16 16" version="1.1" xmlns="http://www.w3.org/2000/svg" xmlns:xlink="http://www.w3.org/1999/xlink">
    <title>OLS-C/TE/download</title>
    <g id="Icons" stroke="none" stroke-width="1" fill="none" fill-rule="evenodd">
        <g id="Path" fill="#006FBF">
            <path d="M15.0697674,9.6 C14.5116279,9.6 14.1395349,9.96056338 14.1395349,10.5014085 L14.1395349,13.2957746 C14.1395349,13.8366197 13.7674419,14.1971831 13.2093023,14.1971831 L2.79069767,14.1971831 C2.23255814,14.1971831 1.86046512,13.8366197 1.86046512,13.2957746 L1.86046512,10.5014085 C1.86046512,9.96056338 1.48837209,9.6 0.930232558,9.6 C0.372093023,9.6 0,9.96056338 0,10.5014085 L0,13.2957746 C0,14.828169 1.20930233,16 2.79069767,16 L13.2093023,16 C14.7906977,16 16,14.828169 16,13.2957746 L16,10.5014085 C16,9.96056338 15.627907,9.6 15.0697674,9.6 Z"></path>
            <path d="M7.10040161,11.3355932 C7.19036145,11.4350282 7.37028112,11.5344633 7.5502008,11.6338983 C7.5502008,11.6338983 7.5502008,11.6338983 7.5502008,11.6338983 C7.73012048,11.7333333 7.91004016,11.7333333 8,11.7333333 C8.08995984,11.7333333 8.35983936,11.7333333 8.4497992,11.6338983 C8.4497992,11.6338983 8.4497992,11.6338983 8.4497992,11.6338983 C8.62971888,11.5344633 8.80963855,11.4350282 8.89959839,11.3355932 L11.3285141,8.65084746 C11.8682731,8.05423729 11.8682731,7.15932203 11.3285141,6.56271186 C10.788755,5.96610169 9.97911647,5.96610169 9.43935743,6.56271186 L9.25943775,6.76158192 L9.25943775,1.49152542 C9.25943775,0.696045198 8.62971888,0 7.91004016,0 C7.19036145,0 6.56064257,0.696045198 6.56064257,1.49152542 L6.56064257,6.66214689 L6.56064257,6.56271186 C6.02088353,5.96610169 5.21124498,5.96610169 4.67148594,6.56271186 C4.13172691,7.15932203 4.13172691,8.05423729 4.67148594,8.65084746 L7.10040161,11.3355932 Z" transform="translate(8.000000, 5.866667) scale(1, -1) translate(-8.000000, -5.866667) "></path>
        </g>
    </g>
</svg>